<svg width="731" height="315" viewBox="0 0 731 315" fill="none" xmlns="http://www.w3.org/2000/svg">
<path fill-rule="evenodd" clip-rule="evenodd" d="M395.401 147.671L268.836 4.58525C263.506 -1.45287 253.17 -1.54187 247.737 4.40358L118.728 145.289C116.874 147.313 115.647 149.831 115.194 152.538C114.742 155.244 115.084 158.025 116.178 160.541C117.273 163.058 119.073 165.204 121.362 166.719C123.65 168.234 126.329 169.053 129.073 169.077L157.47 169.322L156.614 268.711C156.582 272.477 158.047 276.101 160.687 278.787C163.326 281.473 166.925 283 170.691 283.032L246.364 283.684V262.689H202.858V230.902H276.1C278.151 230.902 279.958 230.121 281.52 228.558C283.083 226.898 283.864 224.945 283.864 222.699C283.864 220.453 283.083 219.037 281.52 218.451C279.958 217.767 278.151 217.426 276.1 217.426H242.702C237.135 217.426 231.911 216.4 227.028 214.349C222.243 212.201 218.043 209.32 214.43 205.707C210.915 201.996 208.083 197.699 205.934 192.816C203.883 187.933 202.858 182.709 202.858 177.142C202.858 171.674 203.883 166.547 205.934 161.761C208.083 156.879 210.915 152.631 214.43 149.017C218.043 145.404 222.243 142.572 227.028 140.521C231.911 138.373 237.135 137.299 242.702 137.299H246.364V97.6013H273.317V137.299H307.594V169.379H242.702C240.456 169.379 238.551 170.16 236.989 171.722C235.426 173.187 234.645 174.994 234.645 177.142C234.645 179.388 235.426 181.293 236.989 182.855C238.551 184.418 240.456 185.199 242.702 185.199H276.1C281.569 185.199 286.696 186.127 291.481 187.982C296.364 189.838 300.612 192.426 304.225 195.746C307.838 199.066 310.67 203.021 312.721 207.611C314.87 212.201 315.944 217.23 315.944 222.699C315.944 228.265 314.87 233.49 312.721 238.373C310.67 243.256 307.838 247.504 304.225 251.117C300.612 254.633 296.364 257.465 291.481 259.613C286.696 261.664 281.569 262.689 276.1 262.689H273.317V283.916L341.073 284.499C344.839 284.532 348.463 283.067 351.149 280.427C353.835 277.787 355.362 274.189 355.394 270.423L356.25 171.033L384.647 171.278C387.397 171.313 390.097 170.548 392.419 169.075C394.742 167.602 396.585 165.485 397.725 162.982C398.865 160.48 399.252 157.7 398.839 154.981C398.427 152.262 397.232 149.722 395.401 147.671Z" fill="#00847C"/>
<path d="M75.375 258.041H66.4375V275.979H48.5V258.041H3.6875L13.6875 186.354H31.625L23.8125 240.166H48.5V195.354H66.4375V240.166H75.375V258.041Z" fill="black"/>
<path d="M147.125 231.166C147.125 235.291 146.583 239.27 145.5 243.104C144.458 246.895 142.958 250.458 141 253.791C139.042 257.083 136.708 260.104 134 262.854C131.292 265.562 128.271 267.895 124.938 269.854C121.604 271.812 118.021 273.333 114.188 274.416C110.396 275.458 106.438 275.979 102.312 275.979H75.3125V186.354H102.312C106.438 186.354 110.396 186.895 114.188 187.979C118.021 189.02 121.604 190.52 124.938 192.479C128.271 194.437 131.292 196.791 134 199.541C136.708 202.25 139.042 205.27 141 208.604C142.958 211.895 144.458 215.458 145.5 219.291C146.583 223.083 147.125 227.041 147.125 231.166ZM129.188 231.166C129.188 227.458 128.479 223.979 127.062 220.729C125.688 217.479 123.771 214.645 121.312 212.229C118.896 209.77 116.042 207.833 112.75 206.416C109.5 205 106.021 204.291 102.312 204.291H93.375V258.041H102.312C106.021 258.041 109.5 257.354 112.75 255.979C116.042 254.562 118.896 252.645 121.312 250.229C123.771 247.77 125.688 244.916 127.062 241.666C128.479 238.375 129.188 234.875 129.188 231.166Z" fill="black"/>
<path d="M466.688 250.166C465.312 251.416 463.833 252.604 462.25 253.729C460.708 254.812 459.083 255.77 457.375 256.604C455.667 257.395 453.896 258.02 452.062 258.479C450.271 258.979 448.438 259.229 446.562 259.229C442.438 259.229 438.562 258.5 434.938 257.041C431.312 255.583 428.125 253.52 425.375 250.854C422.667 248.145 420.521 244.875 418.938 241.041C417.396 237.166 416.625 232.833 416.625 228.041V191.041H433.625V228.041C433.625 230.291 433.958 232.312 434.625 234.104C435.333 235.854 436.271 237.333 437.438 238.541C438.604 239.75 439.958 240.666 441.5 241.291C443.083 241.916 444.771 242.229 446.562 242.229C448.312 242.229 449.958 241.833 451.5 241.041C453.083 240.208 454.458 239.125 455.625 237.791C456.792 236.458 457.708 234.958 458.375 233.291C459.042 231.583 459.375 229.833 459.375 228.041V191.041H476.438V257.979H472.312L466.688 250.166ZM523.062 257.979C518.938 257.979 515.062 257.208 511.438 255.666C507.812 254.083 504.625 251.937 501.875 249.229C499.167 246.479 497.021 243.291 495.438 239.666C493.896 236.041 493.125 232.166 493.125 228.041V208.166H484.812V191.166H493.125V164.416H510.125V191.166H536V208.166H510.125V228.041C510.125 229.833 510.458 231.52 511.125 233.104C511.792 234.645 512.708 236 513.875 237.166C515.042 238.333 516.417 239.27 518 239.979C519.583 240.645 521.271 240.979 523.062 240.979H536V257.979H523.062ZM594.812 250.166C593.438 251.416 591.958 252.604 590.375 253.729C588.833 254.812 587.208 255.77 585.5 256.604C583.792 257.395 582.021 258.02 580.188 258.479C578.396 258.979 576.562 259.229 574.688 259.229C570.562 259.229 566.688 258.5 563.062 257.041C559.438 255.583 556.25 253.52 553.5 250.854C550.792 248.145 548.646 244.875 547.062 241.041C545.521 237.166 544.75 232.833 544.75 228.041V191.041H561.75V228.041C561.75 230.291 562.083 232.312 562.75 234.104C563.458 235.854 564.396 237.333 565.562 238.541C566.729 239.75 568.083 240.666 569.625 241.291C571.208 241.916 572.896 242.229 574.688 242.229C576.438 242.229 578.083 241.833 579.625 241.041C581.208 240.208 582.583 239.125 583.75 237.791C584.917 236.458 585.833 234.958 586.5 233.291C587.167 231.583 587.5 229.833 587.5 228.041V191.041H604.562V257.979H600.438L594.812 250.166ZM634.688 257.979H617.625V191.041H621.75L627.375 198.979C630.125 196.479 633.25 194.562 636.75 193.229C640.25 191.854 643.875 191.166 647.625 191.166H662.688V208.166H647.625C645.833 208.166 644.146 208.5 642.562 209.166C640.979 209.833 639.604 210.75 638.438 211.916C637.271 213.083 636.354 214.458 635.688 216.041C635.021 217.625 634.688 219.312 634.688 221.104V257.979ZM696 241.604C696.667 241.812 697.333 241.958 698 242.041C698.667 242.083 699.333 242.104 700 242.104C701.667 242.104 703.271 241.875 704.812 241.416C706.354 240.958 707.792 240.312 709.125 239.479C710.5 238.604 711.708 237.562 712.75 236.354C713.833 235.104 714.708 233.729 715.375 232.229L727.875 244.791C726.292 247.041 724.458 249.062 722.375 250.854C720.333 252.645 718.104 254.166 715.688 255.416C713.312 256.666 710.792 257.604 708.125 258.229C705.5 258.895 702.792 259.229 700 259.229C695.292 259.229 690.854 258.354 686.688 256.604C682.562 254.854 678.938 252.416 675.812 249.291C672.729 246.166 670.292 242.458 668.5 238.166C666.708 233.833 665.812 229.083 665.812 223.916C665.812 218.625 666.708 213.791 668.5 209.416C670.292 205.041 672.729 201.312 675.812 198.229C678.938 195.145 682.562 192.75 686.688 191.041C690.854 189.333 695.292 188.479 700 188.479C702.792 188.479 705.521 188.812 708.188 189.479C710.854 190.145 713.375 191.104 715.75 192.354C718.167 193.604 720.417 195.145 722.5 196.979C724.583 198.77 726.417 200.791 728 203.041L696 241.604ZM704.75 206.416C703.958 206.125 703.167 205.937 702.375 205.854C701.625 205.77 700.833 205.729 700 205.729C697.667 205.729 695.458 206.166 693.375 207.041C691.333 207.875 689.542 209.083 688 210.666C686.5 212.25 685.312 214.166 684.438 216.416C683.562 218.625 683.125 221.125 683.125 223.916C683.125 224.541 683.146 225.25 683.188 226.041C683.271 226.833 683.375 227.645 683.5 228.479C683.667 229.27 683.854 230.041 684.062 230.791C684.271 231.541 684.542 232.208 684.875 232.791L704.75 206.416Z" fill="black"/>
<path d="M369.045 283.979V190.888H432.591V209.161H391.545V228.251H428.545V246.57H391.545V283.979H369.045Z" fill="black"/>
</svg>
