<svg width="148" height="64" viewBox="0 0 148 64" fill="none" xmlns="http://www.w3.org/2000/svg">
<path d="M15.2606 52.4274H13.4511V56.0719H9.81943V52.4274H0.746582L2.77121 37.8624H6.40287L4.82114 48.7956H9.81943V39.691H13.4511V48.7956H15.2606V52.4274Z" fill="white"/>
<path fill-rule="evenodd" clip-rule="evenodd" d="M80.0538 30.003L54.4292 0.931606C53.35 -0.295187 51.2574 -0.313269 50.1574 0.894695L24.038 29.519C23.6626 29.9303 23.4142 30.4419 23.3225 30.9918C23.2309 31.5416 23.3002 32.1067 23.5217 32.6179C23.7434 33.1292 24.1078 33.5653 24.5712 33.8731C25.0345 34.1809 25.5769 34.3473 26.1324 34.3521L31.8818 34.4019L31.7084 54.5952C31.702 55.3604 31.9986 56.0967 32.5331 56.6424C33.0674 57.1882 33.796 57.4984 34.5585 57.5049L49.8794 57.6374V53.3717H41.0711V46.9134H55.8999C56.3151 46.9134 56.681 46.7547 56.9972 46.4372C57.3137 46.0999 57.4718 45.7031 57.4718 45.2468C57.4718 44.7905 57.3137 44.5028 56.9972 44.3837C56.681 44.2447 56.3151 44.1754 55.8999 44.1754H49.138C48.0109 44.1754 46.9533 43.967 45.9646 43.5503C44.9958 43.1138 44.1455 42.5285 43.414 41.7944C42.7024 41.0405 42.129 40.1674 41.6939 39.1753C41.2786 38.1832 41.0711 37.1218 41.0711 35.9908C41.0711 34.8798 41.2786 33.8381 41.6939 32.8657C42.129 31.8738 42.7024 31.0107 43.414 30.2765C44.1455 29.5424 44.9958 28.967 45.9646 28.5503C46.9533 28.1139 48.0109 27.8957 49.138 27.8957H49.8794V19.8301H55.3364V27.8957H62.2762V34.4135H49.138C48.6833 34.4135 48.2976 34.5722 47.9814 34.8895C47.6649 35.1872 47.5068 35.5543 47.5068 35.9908C47.5068 36.4471 47.6649 36.8341 47.9814 37.1515C48.2976 37.4691 48.6833 37.6277 49.138 37.6277H55.8999C57.0071 37.6277 58.0452 37.8163 59.0139 38.1932C60.0026 38.5703 60.8626 39.0961 61.5941 39.7706C62.3256 40.4452 62.899 41.2487 63.3142 42.1813C63.7493 43.1138 63.9668 44.1356 63.9668 45.2468C63.9668 46.3776 63.7493 47.4392 63.3142 48.4313C62.899 49.4234 62.3256 50.2865 61.5941 51.0206C60.8626 51.735 60.0026 52.3103 59.0139 52.7468C58.0452 53.1635 57.0071 53.3717 55.8999 53.3717H55.3364V57.6845L69.0545 57.803C69.8169 57.8097 70.5506 57.512 71.0945 56.9756C71.6383 56.4393 71.9474 55.7082 71.9539 54.9431L72.1272 34.7496L77.8766 34.7993C78.4333 34.8064 78.98 34.651 79.4501 34.3517C79.9204 34.0525 80.2935 33.6223 80.5244 33.1138C80.7552 32.6055 80.8335 32.0406 80.7499 31.4882C80.6665 30.9358 80.4245 30.4197 80.0538 30.003Z" fill="#00847C"/>
<path d="M29.7873 46.9671C29.7873 47.8052 29.6775 48.6136 29.4583 49.3926C29.2473 50.1628 28.9436 50.8867 28.5472 51.5639C28.1508 52.2327 27.6782 52.8465 27.13 53.4053C26.5817 53.9555 25.9701 54.4295 25.2952 54.8275C24.6202 55.2253 23.8948 55.5343 23.1188 55.7544C22.351 55.9661 21.5497 56.0719 20.7143 56.0719H15.2479V37.8624H20.7143C21.5497 37.8624 22.351 37.9723 23.1188 38.1926C23.8948 38.4041 24.6202 38.7088 25.2952 39.1068C25.9701 39.5047 26.5817 39.9829 27.13 40.5417C27.6782 41.0921 28.1508 41.7057 28.5472 42.383C28.9436 43.0517 29.2473 43.7756 29.4583 44.5544C29.6775 45.3248 29.7873 46.129 29.7873 46.9671ZM26.1557 46.9671C26.1557 46.2137 26.0122 45.5068 25.7253 44.8465C25.4471 44.1862 25.059 43.6104 24.5611 43.1195C24.072 42.6199 23.4941 42.2264 22.8276 41.9385C22.1696 41.6508 21.4653 41.5067 20.7143 41.5067H18.9049V52.4274H20.7143C21.4653 52.4274 22.1696 52.2878 22.8276 52.0084C23.4941 51.7205 24.072 51.331 24.5611 50.8402C25.059 50.3406 25.4471 49.7607 25.7253 49.1004C26.0122 48.4317 26.1557 47.7206 26.1557 46.9671Z" fill="white"/>
<path d="M94.4868 50.8274C94.2082 51.0813 93.9087 51.3227 93.5882 51.5513C93.276 51.7713 92.947 51.966 92.6012 52.1354C92.2554 52.2961 91.8969 52.4231 91.5255 52.5164C91.1629 52.618 90.7918 52.6688 90.412 52.6688C89.577 52.6688 88.7923 52.5206 88.0586 52.2242C87.3244 51.928 86.6792 51.5088 86.1224 50.9672C85.5742 50.4168 85.1397 49.7524 84.8192 48.9734C84.507 48.1861 84.3509 47.3058 84.3509 46.3321V38.8147H87.7927V46.3321C87.7927 46.7893 87.8602 47.1999 87.9952 47.564C88.1385 47.9195 88.3285 48.22 88.5647 48.4655C88.8008 48.7111 89.0749 48.8972 89.3871 49.0242C89.7076 49.1512 90.0494 49.2148 90.412 49.2148C90.7663 49.2148 91.0996 49.1343 91.4118 48.9734C91.7323 48.8042 92.0106 48.5841 92.2469 48.3131C92.4832 48.0423 92.6686 47.7375 92.8037 47.3988C92.9387 47.0518 93.0062 46.6962 93.0062 46.3321V38.8147H96.4608V52.4148H95.6254L94.4868 50.8274ZM105.9 52.4148C105.065 52.4148 104.281 52.2581 103.547 51.9448C102.813 51.6232 102.168 51.1872 101.611 50.637C101.063 50.0783 100.628 49.4306 100.308 48.694C99.9954 47.9575 99.8393 47.1702 99.8393 46.3321V42.294H98.1562V38.8401H99.8393V33.4052H103.281V38.8401H108.52V42.294H103.281V46.3321C103.281 46.6962 103.349 47.039 103.484 47.3608C103.619 47.6739 103.804 47.9492 104.04 48.1861C104.277 48.4232 104.555 48.6136 104.876 48.7576C105.196 48.893 105.538 48.9608 105.9 48.9608H108.52V52.4148H105.9ZM120.427 50.8274C120.149 51.0813 119.849 51.3227 119.529 51.5513C119.217 51.7713 118.888 51.966 118.542 52.1354C118.196 52.2961 117.837 52.4231 117.466 52.5164C117.103 52.618 116.732 52.6688 116.353 52.6688C115.517 52.6688 114.733 52.5206 113.999 52.2242C113.265 51.928 112.62 51.5088 112.063 50.9672C111.515 50.4168 111.08 49.7524 110.759 48.9734C110.447 48.1861 110.291 47.3058 110.291 46.3321V38.8147H113.733V46.3321C113.733 46.7893 113.801 47.1999 113.936 47.564C114.079 47.9195 114.269 48.22 114.505 48.4655C114.741 48.7111 115.015 48.8972 115.328 49.0242C115.648 49.1512 115.99 49.2148 116.353 49.2148C116.707 49.2148 117.04 49.1343 117.352 48.9734C117.673 48.8042 117.951 48.5841 118.187 48.3131C118.424 48.0423 118.609 47.7375 118.744 47.3988C118.879 47.0518 118.947 46.6962 118.947 46.3321V38.8147H122.401V52.4148H121.566L120.427 50.8274ZM128.5 52.4148H125.046V38.8147H125.881L127.02 40.4275C127.577 39.9195 128.209 39.5301 128.918 39.2592C129.627 38.9799 130.36 38.8401 131.12 38.8401H134.169V42.294H131.12C130.757 42.294 130.415 42.3619 130.095 42.4972C129.774 42.6327 129.496 42.819 129.26 43.0559C129.023 43.2931 128.838 43.5724 128.703 43.894C128.568 44.2159 128.5 44.5586 128.5 44.9227V52.4148ZM140.914 49.0878C141.049 49.1301 141.184 49.1597 141.319 49.1766C141.454 49.1851 141.589 49.1894 141.724 49.1894C142.061 49.1894 142.386 49.1429 142.698 49.0496C143.01 48.9565 143.301 48.8253 143.571 48.6561C143.85 48.4783 144.094 48.2666 144.305 48.0211C144.524 47.7672 144.701 47.4878 144.837 47.183L147.367 49.7353C147.047 50.1925 146.675 50.6031 146.254 50.9672C145.84 51.331 145.389 51.6401 144.9 51.894C144.419 52.148 143.909 52.3386 143.369 52.4656C142.837 52.6009 142.289 52.6688 141.724 52.6688C140.77 52.6688 139.872 52.491 139.028 52.1354C138.193 51.7799 137.459 51.2845 136.826 50.6496C136.202 50.0147 135.709 49.2613 135.346 48.3893C134.983 47.5089 134.802 46.5438 134.802 45.494C134.802 44.419 134.983 43.4369 135.346 42.548C135.709 41.6591 136.202 40.9015 136.826 40.2751C137.459 39.6485 138.193 39.1619 139.028 38.8147C139.872 38.4677 140.77 38.2941 141.724 38.2941C142.289 38.2941 142.841 38.3618 143.381 38.4973C143.921 38.6326 144.432 38.8275 144.912 39.0814C145.402 39.3354 145.857 39.6485 146.279 40.0211C146.701 40.385 147.072 40.7956 147.393 41.2528L140.914 49.0878ZM142.685 41.9385C142.525 41.8794 142.365 41.8412 142.205 41.8243C142.053 41.8072 141.892 41.7989 141.724 41.7989C141.251 41.7989 140.804 41.8877 140.382 42.0655C139.969 42.2349 139.606 42.4804 139.294 42.802C138.99 43.1238 138.75 43.5131 138.573 43.9702C138.396 44.419 138.307 44.927 138.307 45.494C138.307 45.621 138.311 45.7651 138.32 45.9258C138.337 46.0867 138.358 46.2517 138.383 46.4211C138.417 46.5818 138.455 46.7385 138.497 46.8909C138.539 47.0433 138.594 47.1788 138.661 47.2972L142.685 41.9385Z" fill="white"/>
<path d="M74.7177 57.6973V38.7836H87.5834V42.4962H79.2731V46.3748H86.7642V50.0968H79.2731V57.6973H74.7177Z" fill="white"/>
</svg>
