<svg width="58" height="58" viewBox="0 0 58 58" fill="none" xmlns="http://www.w3.org/2000/svg">
<path fill-rule="evenodd" clip-rule="evenodd" d="M57.0538 30.003L31.4292 0.931606C30.35 -0.295187 28.2574 -0.313269 27.1574 0.894695L1.03794 29.519C0.662579 29.9303 0.414158 30.4419 0.322443 30.9918C0.23093 31.5416 0.300172 32.1067 0.521666 32.6179C0.743362 33.1292 1.10779 33.5653 1.57123 33.8731C2.03446 34.1809 2.57686 34.3473 3.13242 34.3521L8.88174 34.4019L8.70843 54.5952C8.70196 55.3604 8.99856 56.0967 9.53306 56.6424C10.0674 57.1882 10.796 57.4984 11.5585 57.5049L26.8794 57.6374V53.3717H18.0711V46.9134H32.8999C33.3151 46.9134 33.681 46.7547 33.9972 46.4372C34.3136 46.0999 34.4718 45.7031 34.4718 45.2468C34.4718 44.7904 34.3136 44.5028 33.9972 44.3837C33.681 44.2447 33.3151 44.1754 32.8999 44.1754H26.138C25.0109 44.1754 23.9532 43.967 22.9646 43.5503C21.9958 43.1139 21.1455 42.5285 20.414 41.7944C19.7023 41.0405 19.129 40.1674 18.6939 39.1753C18.2786 38.1832 18.0711 37.1218 18.0711 35.9908C18.0711 34.8798 18.2786 33.8381 18.6939 32.8657C19.129 31.8738 19.7023 31.0107 20.414 30.2765C21.1455 29.5424 21.9958 28.967 22.9646 28.5503C23.9532 28.1139 25.0109 27.8957 26.138 27.8957H26.8794V19.8301H32.3364V27.8957H39.2762V34.4135H26.138C25.6833 34.4135 25.2976 34.5722 24.9813 34.8895C24.6649 35.1872 24.5068 35.5543 24.5068 35.9908C24.5068 36.4471 24.6649 36.8341 24.9813 37.1515C25.2976 37.4691 25.6833 37.6277 26.138 37.6277H32.8999C34.0071 37.6277 35.0451 37.8163 36.0139 38.1932C37.0025 38.5703 37.8626 39.0961 38.5941 39.7706C39.3256 40.4452 39.899 41.2487 40.3142 42.1813C40.7493 43.1138 40.9668 44.1356 40.9668 45.2468C40.9668 46.3776 40.7493 47.4392 40.3142 48.4313C39.899 49.4234 39.3256 50.2865 38.5941 51.0206C37.8626 51.735 37.0025 52.3103 36.0139 52.7468C35.0451 53.1635 34.0071 53.3717 32.8999 53.3717H32.3364V57.6845L46.0544 57.803C46.8169 57.8097 47.5506 57.512 48.0945 56.9756C48.6383 56.4393 48.9474 55.7082 48.9539 54.9431L49.1272 34.7496L54.8765 34.7993C55.4333 34.8064 55.98 34.651 56.4501 34.3517C56.9204 34.0525 57.2935 33.6223 57.5243 33.1138C57.7552 32.6055 57.8335 32.0406 57.7499 31.4882C57.6665 30.9358 57.4245 30.4197 57.0538 30.003Z" fill="#00847C"/>
</svg>
